<svg width="124" height="13" viewBox="0 0 124 13" fill="none" xmlns="http://www.w3.org/2000/svg">
<path d="M10.4 13V10.5H7.9V8H10.4V5.5V3V0.5H12.9V3V5.5V8V10.5V13H10.4ZM0.400002 13V10.5V8V5.5V3V0.5H2.9V3H5.4V5.5H7.9V8H5.4V5.5H2.9V8V10.5V13H0.400002ZM22.3 10.5H24.8V13H22.3H19.8H17.3V10.5H19.8H22.3ZM24.8 10.5V8V5.5V3V0.5H27.3V3V5.5V8V10.5H24.8ZM17.3 10.5H14.8V8V5.5V3V0.5H17.3V3V5.5V8V10.5ZM39.2 13V10.5H41.7V13H39.2ZM29.2 13V10.5V8V5.5V3V0.5H31.7H34.2H36.7H39.2V3H41.7V5.5H39.2V3H36.7H34.2H31.7V5.5H34.2H36.7H39.2V8V10.5H36.7V8H34.2H31.7V10.5V13H29.2ZM51.1 10.5H53.6V13H51.1H48.6H46.1H43.6V10.5V8V5.5V3V0.5H46.1H48.6H51.1H53.6V3H51.1H48.6H46.1V5.5H48.6H51.1V8H48.6H46.1V10.5H48.6H51.1Z" fill="white"/>
<path d="M65.5 5.5V3H68V5.5H65.5ZM63 10.5H65.5V13H63H60.5H58V10.5H60.5H63ZM65.5 10.5V8H68V10.5H65.5ZM58 10.5H55.5V8V5.5V3H58V5.5V8V10.5ZM65.5 3H63H60.5H58V0.5H60.5H63H65.5V3ZM79.9 13V10.5H82.4V13H79.9ZM69.9 13V10.5V8V5.5V3V0.5H72.4H74.9H77.4H79.9V3H82.4V5.5H79.9V3H77.4H74.9H72.4V5.5H74.9H77.4H79.9V8V10.5H77.4V8H74.9H72.4V10.5V13H69.9ZM94.3 13V10.5V8H91.8H89.3H86.8V10.5V13H84.3V10.5V8V5.5V3H86.8V5.5H89.3H91.8H94.3V3H96.8V5.5V8V10.5V13H94.3ZM94.3 3H91.8H89.3H86.8V0.5H89.3H91.8H94.3V3ZM98.7 13V10.5V8V5.5V3V0.5H101.2H103.7H106.2H108.7V3H106.2H103.7H101.2V5.5H103.7H106.2V8H103.7H101.2V10.5V13H98.7ZM115.6 13V10.5V8V5.5V3H113.1H110.6V0.5H113.1H115.6H118.1H120.6H123.1V3H120.6H118.1V5.5V8V10.5V13H115.6Z" fill="#ADC835"/>
</svg>
